<?xml version="1.0" standalone="no"?>
<!DOCTYPE svg PUBLIC "-//W3C//DTD SVG 20010904//EN"
 "http://www.w3.org/TR/2001/REC-SVG-20010904/DTD/svg10.dtd">
<svg version="1.0" xmlns="http://www.w3.org/2000/svg"
 width="512.000000pt" height="512.000000pt" viewBox="0 0 512.000000 512.000000"
 preserveAspectRatio="xMidYMid meet">
<metadata>
Created by potrace 1.16, written by Peter Selinger 2001-2019
</metadata>
<g transform="translate(0.000000,512.000000) scale(0.100000,-0.100000)"
fill="#000000" stroke="none">
<path d="M2285 4465 c-725 -117 -1306 -606 -1534 -1291 -163 -488 -125 -1005
106 -1472 l47 -93 -134 -490 c-73 -269 -131 -491 -128 -494 3 -4 232 53 508
125 l502 132 75 -37 c454 -221 966 -254 1448 -94 651 217 1126 753 1273 1439
25 117 27 141 27 380 0 239 -2 263 -27 380 -79 369 -243 680 -498 944 -275
285 -607 470 -995 552 -105 23 -149 27 -350 30 -168 2 -254 -1 -320 -11z m597
-344 c630 -136 1104 -612 1240 -1247 20 -94 23 -136 22 -309 0 -221 -15 -315
-75 -497 -149 -450 -514 -825 -959 -986 -187 -68 -345 -95 -550 -95 -277 1
-524 66 -772 205 l-87 49 -291 -77 c-160 -42 -293 -74 -295 -72 -3 2 29 128
70 279 41 151 75 280 75 287 0 7 -24 54 -54 105 -328 560 -287 1254 103 1762
251 328 613 543 1027 610 129 21 417 13 546 -14z"/>
<path d="M1855 3451 c-49 -12 -70 -28 -125 -88 -162 -182 -181 -431 -53 -688
117 -234 409 -569 645 -738 179 -129 502 -267 669 -286 124 -14 219 1 317 49
165 82 226 174 227 345 l0 80 -209 104 c-131 65 -225 106 -251 109 l-42 4 -75
-93 c-100 -126 -133 -159 -155 -159 -29 0 -213 93 -298 150 -141 95 -287 251
-379 403 -39 65 -38 76 9 127 58 63 104 130 114 167 10 33 4 52 -69 230 -96
233 -114 270 -137 277 -35 10 -158 15 -188 7z"/>
</g>
</svg>
